<svg id="Livello_1" data-name="Livello 1" xmlns="http://www.w3.org/2000/svg" viewBox="0 0 2255.08 1094.86"><defs><style>.cls-1,.cls-5,.cls-6{font-size:507.65px;letter-spacing:0.05em;}.cls-1,.cls-10,.cls-11,.cls-5{fill:none;}.cls-1{stroke:#231f20;stroke-width:50px;}.cls-1,.cls-10,.cls-11,.cls-5,.cls-6,.cls-8{font-family:College;}.cls-2,.cls-4{font-size:365.51px;}.cls-2{letter-spacing:0.05em;}.cls-3{letter-spacing:0.05em;}.cls-4{letter-spacing:0.05em;}.cls-5{stroke:#f1f1f2;stroke-width:26px;}.cls-6{fill:#231f20;}.cls-7{fill:#fff;stroke:#1a1a1a;stroke-miterlimit:10;}.cls-11,.cls-7{stroke-width:3px;}.cls-10,.cls-11,.cls-8{font-size:50px;letter-spacing:0.05em;}.cls-9{font-size:38px;letter-spacing:0.05em;}.cls-10{stroke:#000;stroke-width:6px;}.cls-11{stroke:#fff;}</style></defs><title>topbar</title><text class="cls-1" transform="translate(218.56 452.44)">U<tspan class="cls-2" x="320.8" y="0">niver</tspan><tspan class="cls-3" x="1225.83" y="0">C</tspan><tspan class="cls-4" x="1497.06" y="0">ity</tspan></text><text class="cls-5" transform="translate(218.56 452.44)">U<tspan class="cls-2" x="320.8" y="0">niver</tspan><tspan class="cls-3" x="1225.83" y="0">C</tspan><tspan class="cls-4" x="1497.06" y="0">ity</tspan></text><text class="cls-6" transform="translate(218.56 452.44)">U<tspan class="cls-2" x="320.8" y="0">niver</tspan><tspan class="cls-3" x="1225.83" y="0">C</tspan><tspan class="cls-4" x="1497.06" y="0">ity</tspan></text><path class="cls-7" d="M1063.85,804.72a1.38,1.38,0,0,0,.76-.22c.22-.15.25-.29.11-.44a1.6,1.6,0,0,1-.22-.66.6.6,0,0,0-.22-.43,6.31,6.31,0,0,0-2.29-1.53c-.81-.29-1.64-.59-2.52-.88a9.16,9.16,0,0,0-5.69.44c-1.89.58-3.86,1.28-5.9,2.08a13,13,0,0,0-5,3.39,7.75,7.75,0,0,1-1.53,1.53,24,24,0,0,0-2,1.53h-.22v-.44c.29-1.6.55-3.13.77-4.59s.39-3,.54-4.6c.29-.87-.15-1.67-1.31-2.4a16.49,16.49,0,0,0-3.06-1.75,2.27,2.27,0,0,0-2.19-.22,1.72,1.72,0,0,0-1.31,1.75,26.38,26.38,0,0,1-.88,6.78,11.62,11.62,0,0,0-.22,2.19,5.89,5.89,0,0,1-.43,2.19c-.09.32-.17.64-.25,1a2.79,2.79,0,0,0-1.61-.1,3.21,3.21,0,0,0-1.64.66.35.35,0,0,0-.33.21.34.34,0,0,1-.33.22c-1.46,1.17-2.44,2-3,2.52l-1.2,1.2a5,5,0,0,1-1,.77c-.36.22-1.06.62-2.07,1.2q-3.28,1.53-6,2.63a44.25,44.25,0,0,1-5.8,1.86q-3.06.76-6.67,1.42t-8.42,1.31q-.22-.21,0-.66A1.62,1.62,0,0,0,993,822a27.27,27.27,0,0,0,1.42-3.61c.22-.8.62-2,1.21-3.61.43-1.17.8-2.22,1.09-3.17a11.31,11.31,0,0,0,0-4.49,5.65,5.65,0,0,0,0-2.18c-.15-.73-.33-1.54-.55-2.41a5.15,5.15,0,0,0-1.42-2.41,3.59,3.59,0,0,0-1.53-1.75,7.15,7.15,0,0,0-2.19-.87,7.92,7.92,0,0,0-2.19-.22,27.77,27.77,0,0,0-3.28.22,13.89,13.89,0,0,0-5.25,2L978.11,801a24.3,24.3,0,0,1-3.61,3.39,10.87,10.87,0,0,0-3,3.83,9.89,9.89,0,0,1-2,3.71,2,2,0,0,0-.45.71,11.75,11.75,0,0,0-1.19.72,9.56,9.56,0,0,0-1,.76,11.44,11.44,0,0,0-1.86,1.86,2.5,2.5,0,0,1-1.2,1l-1.09,1.09-1.1.87-1.53.88a17.09,17.09,0,0,1-1.75,1.53c-.58.44-1.24.95-2,1.53s-1.53,1-2.4,1.53a13,13,0,0,1-2.41,1.31c-1.17.3-1.93.52-2.3.66a19.56,19.56,0,0,1-2.51.66,8.5,8.5,0,0,1-2.52.54c-.95.08-1.86.11-2.73.11a3.53,3.53,0,0,1-2.84-2,12.37,12.37,0,0,1-3.5-5.9,26.06,26.06,0,0,0-.66-3.39,25.32,25.32,0,0,1-.66-3.61,18,18,0,0,0-.54-4c-.37-1.53-.7-2.73-1-3.61a4,4,0,0,0-1.2-2.62,6.42,6.42,0,0,0-2.52-1.31c-.73-.29-1.45-.55-2.18-.77s-1.46-.47-2.19-.76a7.41,7.41,0,0,0-4.59.65,16.56,16.56,0,0,0-5,3.72,4.42,4.42,0,0,1-1.1,1.42,5.61,5.61,0,0,0-1.09,1.21,7.65,7.65,0,0,0-.77,1c-.36.51-.76,1.06-1.2,1.64s-.87,1.13-1.31,1.64-.73.84-.88,1l-2.4,2.85-2.41,2.4q-2.41,2.42-3.94,4.27a11.4,11.4,0,0,1-3.06,2.73,8.62,8.62,0,0,0-1.42.88l-1.42,1.09a1.94,1.94,0,0,1-.88.22h-.22l.66-3.72,1.75-6.12a15.63,15.63,0,0,0,.55-3.06,19.22,19.22,0,0,1,.54-3.29,6.06,6.06,0,0,0-.43-5.46,3.13,3.13,0,0,0-2.19-3.07,9.79,9.79,0,0,0-1.75-.87c-.73-.29-1.53-.58-2.41-.88a2.33,2.33,0,0,1-1.31-.21,3.54,3.54,0,0,0-2.19.65q-1.75,1.53-3.61,2.85a14,14,0,0,0-3.17,3.06l-2.19,2.84a1.61,1.61,0,0,1-.54-.11.51.51,0,0,0-.55.11v-.44a4.24,4.24,0,0,0,.22-1.31,1.44,1.44,0,0,1,.44-1.09,8.6,8.6,0,0,0,1.2-4.27c.07-1.67.18-3.24.33-4.7a5.9,5.9,0,0,0,.44-2.19v-2a1.44,1.44,0,0,0-.33-.87,8.57,8.57,0,0,0-.55-.66A10.59,10.59,0,0,0,875.3,790a8,8,0,0,0-2.4-1c-.73-.29-1.1,0-1.1.87a15.48,15.48,0,0,0-.87,3.72,53.06,53.06,0,0,0-.66,5.36,27.67,27.67,0,0,1-.87,5.36,28,28,0,0,0-2.63,7.22,3,3,0,0,1-.22,1.31,70,70,0,0,0-3.28,9.41,40.84,40.84,0,0,1-1.64,4.15c-.65,1.46-1.34,2.84-2.07,4.16l-.88,2.18a2.66,2.66,0,0,0,.88,3.07c.73.43,1.49.87,2.29,1.31a7.71,7.71,0,0,0,2.52.87,1.7,1.7,0,0,0,1.53-.65,3.39,3.39,0,0,0,.44-1.31q1.74-3.29,3.28-6.24a49.39,49.39,0,0,1,3.72-6q3.06-3.94,6.12-7.55c2-2.41,4.16-4.77,6.34-7.11l1-1,1-1a1.79,1.79,0,0,1,1.1-.22v.22l.21.44a24.65,24.65,0,0,1-.43,4.81c-.3,1.46-.59,3-.88,4.6l-1.53,7a13.75,13.75,0,0,0-.44,3.29,7.34,7.34,0,0,0,3.28,5.25l3.28,1.53a8.65,8.65,0,0,0,2.41-.22,11,11,0,0,0,4.38-2.85q2.4-2.18,5-5a23.14,23.14,0,0,1,3.28-3.5c.29-.43.73-1,1.31-1.85s1.24-1.65,2-2.52,1.42-1.68,2.08-2.41,1.12-1.23,1.42-1.53c.44-.58.87-1.13,1.31-1.64a7.16,7.16,0,0,1,1.75-1.42l1.86-1.86,1.64-1.64a8.32,8.32,0,0,1,1.09-.77,9.26,9.26,0,0,1,1.86-.87,12.56,12.56,0,0,1,1.64-.44c.44-.07.66.19.66.77l.87,3.06,1.54,7.87a10.53,10.53,0,0,0,1.09,4.05c.58,1.1,1.31,2.44,2.19,4a10.64,10.64,0,0,0,4.48,4.92,22.32,22.32,0,0,0,6.45,2.08A18.14,18.14,0,0,0,948,832a25.7,25.7,0,0,0,4.71-1.64c1.16-.58,2.44-1.17,3.82-1.75a23.46,23.46,0,0,0,4.05-2.19c1-.73,1.86-1.31,2.52-1.75a11.19,11.19,0,0,0,1.64-1.31c.21-.22.44-.44.69-.67a21.9,21.9,0,0,0-1.13,9.86,9.9,9.9,0,0,0,1.31,4.81,9.13,9.13,0,0,0,3.72,3.72,4.78,4.78,0,0,0,2.18.76,7.65,7.65,0,0,0,2.85.11,11.55,11.55,0,0,0,4.81-1.09,12.45,12.45,0,0,0,4.16-3.06l1.75-2a9.21,9.21,0,0,1,2.29-2.63,9.19,9.19,0,0,0,2.3-2.62q.21-.87.33-1.32c.07-.29.4-.5,1-.65a2.25,2.25,0,0,1,1-.22h1a46.49,46.49,0,0,0,11.16-1.53,54.76,54.76,0,0,0,9.4-3.06q2.63-1.1,3.72-1.53a16.52,16.52,0,0,0,1.86-.88c.51-.29,1.16-.69,2-1.2s2.15-1.42,4-2.74a23.13,23.13,0,0,1,2.08-1.09,8.61,8.61,0,0,0,1.86-1.31c.16-.06.3-.14.45-.21-.11.55-.24,1.08-.34,1.63-.52,2.7-1.13,5.36-1.86,8a20.45,20.45,0,0,1-2,6.13,13,13,0,0,0-1.09,2.29c-.29.81-.59,1.57-.88,2.3a1.76,1.76,0,0,0,.66,2.41,10.21,10.21,0,0,0,4.15,2.18,1.59,1.59,0,0,0,1.64,0,2.79,2.79,0,0,0,1.43-1.31,3.69,3.69,0,0,1,.1-.87,3.27,3.27,0,0,0,.11-.88q.88-2.4,1.54-4.7a18.63,18.63,0,0,1,2-4.49,3.18,3.18,0,0,0,1.1-1.53q.87-1.3,1.86-2.73a24.34,24.34,0,0,0,1.64-2.73c1.6-2.05,2.91-3.61,3.93-4.71a20.42,20.42,0,0,1,3.07-2.73q1.74-1.53,3.39-3.17a15.86,15.86,0,0,1,3.61-2.74c.72-.43,1.49-.87,2.29-1.31a20.45,20.45,0,0,1,2.3-1.09,6.72,6.72,0,0,1,3.72-.22,1.74,1.74,0,0,0,1,.11.5.5,0,0,1,.55.11Zm-81.48,23.07a2.09,2.09,0,0,1-.54.77,10.24,10.24,0,0,1-2.63,4.15c-1,.88-2.12,1.9-3.28,3.07q-5.48,4.15-5-.88v-.65c0-1.61,0-3.29.11-5a11.29,11.29,0,0,1,1.42-5,7.33,7.33,0,0,1,.66-1.42c.29-.51.5-.62.65-.33a9.14,9.14,0,0,0,3.94,3.18c1.75.8,3,1.35,3.72,1.64.58-.15.91-.15,1,0A.71.71,0,0,1,982.37,827.79Zm7.55-16.51a55.89,55.89,0,0,0-2.63,6.34,20.07,20.07,0,0,1-3.06,5.91c-.29.29-1.13.18-2.51-.33A15.69,15.69,0,0,1,979,822a2,2,0,0,0-.76-.77c-.37-.22-.55-.4-.55-.55-1.61-.72-2.26-1.75-2-3.06a7.3,7.3,0,0,1,1.09-3.94,33.22,33.22,0,0,1,2.74-4.81,18.5,18.5,0,0,1,4.26-4.37,4.82,4.82,0,0,0,2-.88c.58-.58,1.61-.65,3.06-.22s2,1.24,1.54,2.41A11.58,11.58,0,0,1,989.92,811.28Z" transform="translate(-1.92 -213.17)"/><path class="cls-7" d="M636.67,782.73a1.36,1.36,0,0,0,.22-.76q.21-1.1.33-1.86c.07-.51-.26-1-1-1.42a9.54,9.54,0,0,0-3.72-2.41,5.1,5.1,0,0,0-2.18.66c-.3-.29-.44-.07-.44.65a9.83,9.83,0,0,0-1.75,3.5l-.87,3.5a5.19,5.19,0,0,0,.65,3.94l.66.66a2.43,2.43,0,0,0,.65.43,4,4,0,0,1,1.1.44,3.42,3.42,0,0,0,3.06-1.75c.58-.14.66-.36.22-.65a16.86,16.86,0,0,1,2.62-4.16A7.54,7.54,0,0,1,636.67,782.73Z" transform="translate(-1.92 -213.17)"/><path class="cls-7" d="M627.49,730.79l16-.44q5.47.43,10.06.87c3.07.3,6.42.81,10.07,1.53a4.47,4.47,0,0,0,2.29.22c.37-.14,1.13.08,2.3.66A2,2,0,0,0,670,734c.51-.22.91,0,1.2.76a5,5,0,0,0,4.6-.65,4.85,4.85,0,0,0,1.31-1.43c.29-.51.29-.9,0-1.2l-.88-.87c-.14-.73-.8-1.24-2-1.53a11.78,11.78,0,0,0-1.31-.77l-1.09-.55a13.43,13.43,0,0,0-3.28-.33,7.38,7.38,0,0,1-3.07-.76c-.29-.58-1.27-1-2.95-1.09s-3.5-.26-5.47-.33-3.75-.18-5.36-.33-2.48-.58-2.62-1.31a62.67,62.67,0,0,0-12.58-.77q-4.92.33-5.79.33a6.5,6.5,0,0,1-2.41,0c-.87-.14-1.68-.29-2.41-.44a5,5,0,0,0-2.4.22c-4.52.3-7.48.51-8.86.66a9.69,9.69,0,0,1-3.61-.22c0-.29-.37-.29-1.09,0q-5,.66-8,1.09c-2,.3-3.57.55-4.81.77a17.68,17.68,0,0,1-2.84.33h-1.86a.27.27,0,0,0-.44,0l-2.73.76a10.45,10.45,0,0,1-2.74.33,11.88,11.88,0,0,0-4.81.87,3.78,3.78,0,0,1-1.75.44h-.44l.66-1.31a2.24,2.24,0,0,0,.44-1.75c-.15-.44-.3-.88-.44-1.31a7.94,7.94,0,0,0-5.69-3.07c-1.6.59-2.48,1.39-2.62,2.41-.15.59-.3,1.09-.44,1.53a15.15,15.15,0,0,0-.44,1.75,1.52,1.52,0,0,0-.44,1.1,1.49,1.49,0,0,1-.43,1.09,1.6,1.6,0,0,0-.22.66.64.64,0,0,1-.22.43h-.44a47.14,47.14,0,0,1-9.51,1.64,35.08,35.08,0,0,0-10.61,2.52,6.64,6.64,0,0,1-1.42,1,3.5,3.5,0,0,1-1.42.55,23.52,23.52,0,0,0-3.61.76c-1.24.37-2.45.7-3.61,1a18,18,0,0,0-2.08.55A18,18,0,0,1,535,738a8.8,8.8,0,0,1-2.4,1c-.88.22-1.75.47-2.63.76s-1.93.3-2.73.44a5.18,5.18,0,0,0-2.3,1.09,1.83,1.83,0,0,1-1,.55,2,2,0,0,0-1,.55c-1,.29-2.11.54-3.28.76a15.45,15.45,0,0,0-3.28,1l-8.75,3.06a8.77,8.77,0,0,0-2,.87,14.24,14.24,0,0,1-1.75.66,2.07,2.07,0,0,1-1.75.88l-5.69,2.84a3.07,3.07,0,0,0-1.85.55c-.51.36-1,.69-1.43,1a8.81,8.81,0,0,0-2.84,1.42,16.81,16.81,0,0,1-2.62,1.64q-2.85,1.76-5.58,3.72a14.21,14.21,0,0,0-4.27,4.81,4.77,4.77,0,0,0,.44,3.5,4.92,4.92,0,0,0,2,2.08,2.13,2.13,0,0,0,2.19-.11c.73-.44,1.24-1.45,1.53-3.06,0-.29.18-.47.54-.55a1,1,0,0,0,.77-.54,2.61,2.61,0,0,1,1.75-2,21.18,21.18,0,0,0,2.62-1.32,7,7,0,0,1,2.19-1.09c.3,0,1-.51,2.19-1.53a5,5,0,0,0,2.73-.76c.81-.51,1.64-1,2.52-1.43l2.84-1.09a23.36,23.36,0,0,1,3.5-1.42,16.33,16.33,0,0,0,3.28-1.42c1-.44,1.68-.73,2-.88a1.77,1.77,0,0,1,.66-.22,2.61,2.61,0,0,0,.65-.11,18.66,18.66,0,0,0,2-.76,17.83,17.83,0,0,1,3.94-1.64,28.82,28.82,0,0,0,3.94-1.43L540,744.35a34,34,0,0,1,7.55-1.75,44.41,44.41,0,0,0,7.54-1.53,11.88,11.88,0,0,1,1.43-.55,1.33,1.33,0,0,1,1.42.11c1.45-.44,2.55-.8,3.28-1.1a20,20,0,0,1,3.28-.87h.88l-3.07,4.81q-2.19,4.15-4.37,8.42t-4.38,8.64c0,.3-.22.51-.65.66a37.69,37.69,0,0,0-2.63,5.47,16.78,16.78,0,0,1-3.28,5.25v.22l-3.28,6.12c-1.17,1.9-2.19,3.68-3.06,5.36S538.9,787,538,788.75c-1.31,2.77-2.59,5.47-3.82,8.09a84.64,84.64,0,0,1-4.27,7.88l-.66.65a18.14,18.14,0,0,1-3.5.44,3.66,3.66,0,0,1-1.53.22,33,33,0,0,0-4.7.33,14.59,14.59,0,0,1-4.7-.11,2.27,2.27,0,0,0-1.42,0,9.38,9.38,0,0,0-1,.44c-.73.14-1.09.73-1.09,1.75a3.87,3.87,0,0,0,.65,2.62,1.93,1.93,0,0,0,1,.55,1.88,1.88,0,0,1,1,.54,3.32,3.32,0,0,0,2.63,1.32c.73.14,1.45.25,2.19.32a7,7,0,0,0,2.18-.11l5.47-.43c-.87,1.6-1.68,3.17-2.41,4.7s-1.38,3-2,4.48a.64.64,0,0,1-.22.44.27.27,0,0,0,0,.44,26.85,26.85,0,0,0-2.41,5.36,46.18,46.18,0,0,1-2,5.14,21.85,21.85,0,0,0-2.18,7,35.52,35.52,0,0,0-1.54,3.5,33.53,33.53,0,0,0-1.09,3.5c-.15.58-.33,1.2-.55,1.86a9.83,9.83,0,0,1-1,2.07,9.44,9.44,0,0,1-.55,1.86,3.17,3.17,0,0,0-.11,1.86l-1.75,5.91a2.67,2.67,0,0,0-.65,2.4,8.09,8.09,0,0,0-.55,2.41,19.78,19.78,0,0,1-.33,2.41,13.23,13.23,0,0,0-.43,3.17,8.58,8.58,0,0,1-.44,2.73,33.89,33.89,0,0,0,.22,4,7.35,7.35,0,0,0,1.53,3.61,6.94,6.94,0,0,0,1.42,1.75A6.24,6.24,0,0,0,512,885a3.59,3.59,0,0,0,3-.44,6.18,6.18,0,0,0,2.08-2,2.66,2.66,0,0,0,.32-2.19c-.22-.73-1-1-2.29-.88h-.44c-.15,0-.22-.14-.22-.43l-.44-.44c-.14-1.9-.22-3.72-.22-5.47a12,12,0,0,1,1.1-5c.14-.44.29-.88.44-1.31s.29-1,.43-1.53a25.8,25.8,0,0,1,1.42-5.14,27,27,0,0,0,1.43-4.93,13.13,13.13,0,0,0,1.2-3.82,13.19,13.19,0,0,1,1.2-3.83,30,30,0,0,0,2.41-7.22c.73-1.6,1.38-3.1,2-4.48a36.87,36.87,0,0,0,1.53-4.49q1.3-3.49,3.5-8.31a38,38,0,0,1,1.64-3.72,41.24,41.24,0,0,1,2.08-3.72l1.31-3.28,4.59-.87,3.06-.44,10.28-1.53,7.66-.66,6.78-1.53,6.78-1.09v.22l.88-.22,11.37-1.53,3.94-.44a8.71,8.71,0,0,0,1.53-.11,9.79,9.79,0,0,1,1.53-.11,12.85,12.85,0,0,0,1.75-.11,14.68,14.68,0,0,1,1.75-.11h.44c.44,0,.87-.36,1.31-1.09l-.87-2a4.34,4.34,0,0,0-1.54-1.31,2.65,2.65,0,0,0-1.86-1.32,11.6,11.6,0,0,0-1.85-.21,8.15,8.15,0,0,0-4.16-.22,5.3,5.3,0,0,0-1.42.11,3.45,3.45,0,0,1-1,.11,25,25,0,0,1-4.26.54,12.08,12.08,0,0,0-4.27,1H576.3v.22l-6.12.87-7.22.88-12,1.31-6.34,1.09h-2.41a9.79,9.79,0,0,0-1.53.11,8.71,8.71,0,0,1-1.53.11,79.86,79.86,0,0,0,4.81-8.75l3.5-7.44q2.19-3.71,3.94-7.43a63,63,0,0,1,4.15-7.44c1-1.6,1.93-3.21,2.74-4.81l2.51-5a2,2,0,0,0,.55-.88,1.84,1.84,0,0,1,.55-.87,78.46,78.46,0,0,0,4.26-7.44q1.86-3.72,3.83-7l5.47-10.28,10.5-2a59.56,59.56,0,0,1,6.34-1c2.19-.22,4.37-.55,6.56-1a1.84,1.84,0,0,1,1.75,0,19.27,19.27,0,0,1,3.5-.54,20.21,20.21,0,0,0,3.5-.55c3.35-.29,6.71-.55,10.06-.77A90.29,90.29,0,0,1,627.49,730.79Z" transform="translate(-1.92 -213.17)"/><path class="cls-7" d="M824.56,727.5a1.74,1.74,0,0,0-.88-.32,4,4,0,0,1-1.09-.33,20.54,20.54,0,0,0-3.17-.55c-.95-.07-2-.18-3.17-.33-.3,0-.44.08-.44.22a8.39,8.39,0,0,0-2.63,2.41c-1.31,2-2.59,4-3.82,6s-2.45,4-3.61,6a17.86,17.86,0,0,1-2.63,5.25,2.13,2.13,0,0,1-.65,1.53,35.08,35.08,0,0,1-1.54,4.48c-.58,1.39-1.24,2.88-2,4.49a48.45,48.45,0,0,0-3.18,6.78,39,39,0,0,0-2.07,7.65,3.25,3.25,0,0,0-.44,1.32q-.66,1.74-1.2,3.39c-.37,1.09-.7,2.07-1,3l-1.31,4.37c-.88,2.78-1.68,5.47-2.41,8.1s-1.38,5.25-2,7.87a21,21,0,0,1-2,5,11.72,11.72,0,0,0-1.1,1.75c-.29.59-.65,1.24-1.09,2a1.94,1.94,0,0,1-.66,1,8.59,8.59,0,0,0-.87.77,8.64,8.64,0,0,1-1.64,2.73,12.47,12.47,0,0,0-1.64,2.3q-.66.66-1.32,1.2a5.89,5.89,0,0,0-1.09,1.21c-.73,1-1.46,2-2.19,2.84a9,9,0,0,1-2.18,2,24.51,24.51,0,0,0-2.3,2.62,22.39,22.39,0,0,1-2.08,2.41,97.12,97.12,0,0,1-12.9,11.16,16.67,16.67,0,0,0-2.74,1.64,7.44,7.44,0,0,1-2.95,1.2H746a2.38,2.38,0,0,0-1.09.22c-.29.15-.59,0-.88-.44s-.58-1.2-.87-1.86a2.59,2.59,0,0,1,0-2.08,8,8,0,0,1,.22-2,7.42,7.42,0,0,0,.22-1.75,46.22,46.22,0,0,1,1.75-5.79c.72-2,1.45-3.75,2.18-5.36.64-1,1.3-1.91,2-2.85h0s0,0,0-.07q1.26-1.78,2.59-3.54c1.6-2.12,3.2-4.19,4.81-6.24l2.62-2.62a6.09,6.09,0,0,1,1.64-1,2,2,0,0,1,2.08.11c.29.3.36.44.22.44s-.15.22,0,.66a4.7,4.7,0,0,1,1.53,2.07c.29.81.58,1.57.88,2.3a1.77,1.77,0,0,0,.22,1,9.5,9.5,0,0,1,.65,1.42,3.44,3.44,0,0,0,2.41.65,3.92,3.92,0,0,0,1.75-.43,4.08,4.08,0,0,0,1.31-.77c.44-.36.51-.69.22-1l-1.09-2.63a15.47,15.47,0,0,0-1.43-3.83,7.6,7.6,0,0,0-2.73-3c-.73-.29-1.53-.66-2.41-1.09a5.38,5.38,0,0,0-2.4-.66h-2.85c-.58,0-1,.15-1.09.44l-1.31.44a11.41,11.41,0,0,0-4.7,3.06q-1.43,1.53-3,3.06l-.43.22a8.77,8.77,0,0,1-1,1.53c-.36.44-.69.8-1,1.09a21.28,21.28,0,0,1-1.75,2.41,29.89,29.89,0,0,0-2,2.62,19.27,19.27,0,0,0-1.86,2.63c-.51.87-1.13,1.82-1.86,2.84-.19.47-.38,1-.56,1.62a84.62,84.62,0,0,1-9.5,7.35,16.49,16.49,0,0,1-3,1.86,26.89,26.89,0,0,0-3,1.64,18.42,18.42,0,0,1-7.32,1.31,10,10,0,0,1-7.33-3.06,8.21,8.21,0,0,1-1.75-1.86c-.44-.65-1-1.42-1.53-2.3a3.16,3.16,0,0,1-1.1-1.42q-.44-1-.87-1.86a25.89,25.89,0,0,0-1.2-4.15,9.37,9.37,0,0,1-.55-4.38v-1.53a8.18,8.18,0,0,1,0-2.73,11.08,11.08,0,0,0,.22-2.3,8.22,8.22,0,0,0,0-2.62,27.19,27.19,0,0,0-.66-2.85,3.14,3.14,0,0,0-1.31-2.18,13.15,13.15,0,0,0-5.69-2.85h-1.09c-1.17.15-2.34.33-3.5.55a10.06,10.06,0,0,0-3.5,1.42,26.8,26.8,0,0,0-3.28,2.84q-1.75,1.76-3.28,3.07c-.3.29-.59.22-.88-.22-.14-.15-.18-.55-.11-1.21s.18-1.38.33-2.18.25-1.53.33-2.19,0-1.06-.11-1.2a5.93,5.93,0,0,0-5-1.32c-1.31.3-1.9.88-1.75,1.75-.15.44-.33,1-.55,1.75s-.44,1.54-.65,2.41-.44,1.72-.66,2.52a9.93,9.93,0,0,1-.55,1.64l-.87,2.4a22.42,22.42,0,0,0-1.48,3.89,10.05,10.05,0,0,1-1.14.71,21.85,21.85,0,0,1-2,1.64,17.91,17.91,0,0,0-2,1.64l-2.19,1.64a1.31,1.31,0,0,1-.66.33.63.63,0,0,0-.43.21q-.23.23-1.53,1.32a45.49,45.49,0,0,1-5.36,3.61c-2.12,1.24-4.38,2.4-6.78,3.5a69.71,69.71,0,0,1-7.33,2.84,41.28,41.28,0,0,1-6.78,1.64,22.76,22.76,0,0,1-6.67-.11,4.11,4.11,0,0,1-3.83-4.27,7.93,7.93,0,0,1,.11-3.93c.36-1.32.76-2.63,1.2-3.94l3.72-8.53a4.82,4.82,0,0,0,1-2.84,4.23,4.23,0,0,0-1.42-2.41c-.29-.14-.43-.25-.43-.33s-.08-.18-.22-.33a12.76,12.76,0,0,0-1.32-.76l-1.53-.77a1.73,1.73,0,0,0-2,.66.28.28,0,0,0,0,.44c.15.14.15.22,0,.22a30.44,30.44,0,0,1-1.75,4.15c-.73,1.46-1.46,2.84-2.18,4.16l-2,7a12.83,12.83,0,0,0,.87,8.09,11.53,11.53,0,0,0,2.63,5.14,23.23,23.23,0,0,0,4.81,3.17c1.17.3,2.19.59,3.06.88a7.73,7.73,0,0,0,2.41.43,19.33,19.33,0,0,0,8.64-.65c2.84-.88,5.36-1.6,7.54-2.19a53.91,53.91,0,0,1,5.25-2.19,7.84,7.84,0,0,0,3.5-2.4,3.25,3.25,0,0,1,1.32-.44c.72-.14,1.09-.29,1.09-.44,1-.73,1.89-1.31,2.63-1.75a21.6,21.6,0,0,0,2.07-1.42c.66-.51,1.42-1.06,2.3-1.64.72-.48,1.65-1.17,2.76-2a17,17,0,0,1-1.45,3.57,2.56,2.56,0,0,0-.44,1.75,2,2,0,0,0,.22,2.63l2.84,2q.43.45,0,.66c-.29.15-.14.22.44.22,1,0,1.68-.22,2-.66.44-.43.88-.83,1.31-1.2a5.9,5.9,0,0,0,1.1-1.2,6.22,6.22,0,0,0,1.2-2.08c.36-1,.73-1.89,1.09-2.84s.73-1.83,1.1-2.63a13.72,13.72,0,0,1,1-1.86,31.55,31.55,0,0,1,3.5-4.15,45,45,0,0,1,5.14-5.91,76.65,76.65,0,0,1,5.8-5l1.86-1.42a7.8,7.8,0,0,1,2.29-1.21.31.31,0,0,1,.44.44,6.35,6.35,0,0,1,0,2.3,4,4,0,0,0,.22,2.29,2.8,2.8,0,0,1,.22,1.75,45.77,45.77,0,0,0,.65,7.11,20.94,20.94,0,0,0,2.41,7.11,24,24,0,0,0,3.06,4.71c1.17,1.38,2.41,2.81,3.72,4.26a23.42,23.42,0,0,0,6.13,3.28,17.39,17.39,0,0,0,7.43,1.31,12.8,12.8,0,0,1,2.41-.21,8.28,8.28,0,0,0,2.62-.44,16.94,16.94,0,0,0,4.6-1.53,38.42,38.42,0,0,0,4.15-2.41,24.59,24.59,0,0,1,2.74-2c.15-.09.29-.2.44-.3l-.34,3.8a2.53,2.53,0,0,0,.22,1.1,5.91,5.91,0,0,0,2.41,4.15,4.62,4.62,0,0,0,2.08,2.3,16.73,16.73,0,0,0,3.17,1,15.53,15.53,0,0,0,5.91-.22,17.7,17.7,0,0,0,8.31-3.71l1.09-.88c1.31-1.16,2.63-2.26,3.94-3.28a31.26,31.26,0,0,0,3.94-3.72q2.83-2.83,5.57-5.25a40.16,40.16,0,0,0,5.14-5.47,6.52,6.52,0,0,0,2.08-2.29,8.7,8.7,0,0,1,1.86-2.3,6.53,6.53,0,0,1,1-2.08c.66-1.09.91-1.49.77-1.2a44,44,0,0,1-.77,4.48c-.36,1.68-.69,3.32-1,4.92s-.58,3.07-.87,4.38a14.35,14.35,0,0,0-.44,2.84c-.15.88-.3,1.72-.44,2.52a19.1,19.1,0,0,1-.66,2.51,11.88,11.88,0,0,1-.32,2.52,4.06,4.06,0,0,0,.11,2.51.45.45,0,0,1-.11.33.44.44,0,0,0-.11.33.82.82,0,0,0-.22,1,1.22,1.22,0,0,1,0,1,7.68,7.68,0,0,1,.11,2.19,6.94,6.94,0,0,0,.11,2.18,3.08,3.08,0,0,0-.11,2.74,5.34,5.34,0,0,1,.11,3.17,1.73,1.73,0,0,0,.22,1,7.58,7.58,0,0,1,.43.77.89.89,0,0,0,.22.66.6.6,0,0,1,.22.43,5.5,5.5,0,0,0,1.09,3.28q.66,0,0,.66a6,6,0,0,0,1.43,1.75,15.86,15.86,0,0,1,1.85,2,8.34,8.34,0,0,0,3.29,2,7.54,7.54,0,0,0,4.37,0l.32-.11c-.19.07.06,0,.77-.11a4.07,4.07,0,0,0,1.21-1.42c.36-.66.25-1.13-.33-1.43s-1.06-.36-1-.21-.32.07-1.2-.22a5.72,5.72,0,0,1-2.19-1.64,18.47,18.47,0,0,0-1.31-2.3,4.11,4.11,0,0,1-1-2c-.08-.58-.19-1.24-.33-2s-.29-1.78-.44-2.73-.29-2.22-.44-3.83a2,2,0,0,0-.21-.87.92.92,0,0,1,0-.88q.64-9.4,1.64-17.39a92.56,92.56,0,0,1,2.51-13.45l2.19-9.84a4.1,4.1,0,0,1,.76-2.41,19.16,19.16,0,0,0,1.43-2.41c1.31-1.89,2.58-3.68,3.82-5.35s2.37-3.32,3.39-4.93a64.75,64.75,0,0,0,5.36-8q2.3-4,4.49-8,1.53-2.42,2.73-4.6c.8-1.45,1.64-3.06,2.52-4.81l2.18-3.94q1.1-2,2.19-4.15t2.08-4.38c.66-1.45,1.27-3,1.86-4.59a3,3,0,0,1,.22-1.31,31.87,31.87,0,0,0,2-6.46c.43-2.25.8-4.4,1.09-6.45A7.23,7.23,0,0,0,824.56,727.5Zm-5,10.28a52.28,52.28,0,0,0-1.75,5.91l-1.32,5.69q-2.18,4.82-4.15,9.08t-4.16,8.42v.65a1.25,1.25,0,0,1-.43.88,11.07,11.07,0,0,0-1.75,2.18c-.44.74-1,1.75-1.75,3.07a8.52,8.52,0,0,0-.66,1.64q-.22.76-.66,1.86a11,11,0,0,0-1.2,1.42,11.65,11.65,0,0,0-1,1.64q-1.76,2.63-3.39,5t-3.39,5.25l-.22.22h-.22c-.3-1-.15-1.75.44-2.19a67.08,67.08,0,0,1,2.4-7.87q1.53-4.15,3.06-8.1a12,12,0,0,1,.66-2.4,13,13,0,0,1,1.53-2.63,95.83,95.83,0,0,1,4.81-11.59q2.63-5.25,5.69-11.16c.73-1.31,1.49-2.73,2.3-4.26a49,49,0,0,1,2.51-4.27,6.1,6.1,0,0,1,1.53-2.4h.66a.2.2,0,0,1,.22.22A6,6,0,0,1,819.53,737.78Z" transform="translate(-1.92 -213.17)"/><path class="cls-7" d="M1589,816.09c0-1-.55-1.46-1.64-1.31a23.52,23.52,0,0,1-3.18.22,2.49,2.49,0,0,0-.76.11,3.45,3.45,0,0,1-1,.11,44.79,44.79,0,0,0-4.48.87c-1.09.29-2.88.88-5.36,1.75q-1.53.43-3.06,1c-1,.36-2,.76-3.06,1.2s-2,.87-3,1.31a20,20,0,0,1-3,1.09,21.86,21.86,0,0,1-5.25,2.63c-1.17.73-2.22,1.35-3.17,1.86s-2.08,1.13-3.39,1.86c-.73.87-1,.73-.77-.44s.4-2.11.55-2.84a23,23,0,0,0,1.2-4.82c.22-1.6.47-3.2.77-4.81a12.37,12.37,0,0,0,.11-2.73,4.73,4.73,0,0,1,.33-2.3,16.55,16.55,0,0,0,.11-3.17c-.08-.95-.11-1.93-.11-2.95a5.05,5.05,0,0,0-2.63-3.72c-.29-.15-.62-.29-1-.44a3.38,3.38,0,0,0-1.21-.22c-1.6-.87-2.84-.73-3.71.44a28.21,28.21,0,0,0-2.08,2.3c-.66.8-1.35,1.56-2.08,2.29l-2.19,3.28-8.09,9a44.27,44.27,0,0,1-4.81,4.92c-1.61,1.39-3.28,2.74-5,4.05l-3.07,1.53a.7.7,0,0,1-.76,0,.73.73,0,0,1-.33-.66,23.81,23.81,0,0,0,.33-2.62,5.88,5.88,0,0,1,.76-2.62c.3-.73.59-1.5.88-2.3s.58-1.64.87-2.52l2.63-6.12a3.15,3.15,0,0,0,0-2.3,2.81,2.81,0,0,0-1.31-1.64,4.49,4.49,0,0,0-1.1-.33,2,2,0,0,1-1.09-.54,2.73,2.73,0,0,0-3.06,1.09c-.59,1.17-1.24,2.7-2,4.59s-1.39,3.5-2,4.82c-.29.87-.55,1.78-.77,2.73s-.47,1.93-.76,2.95a19.08,19.08,0,0,0-.33,4.38,8.17,8.17,0,0,0,1.64,4.15,4.71,4.71,0,0,0,4.16,2.41,3.7,3.7,0,0,1,.87.11,3.72,3.72,0,0,0,.88.11,11.56,11.56,0,0,0,6.34-1.31,33.57,33.57,0,0,0,3.94-2.3,39.36,39.36,0,0,0,3.72-3,1.18,1.18,0,0,1,.43-.55,1.58,1.58,0,0,0,.44-.33,48.7,48.7,0,0,0,5.47-5.47c1.6-1.89,3.28-3.79,5-5.68l2.62-3.07a.41.41,0,0,0,.33-.11.45.45,0,0,1,.33-.11v.44l-1.31,10.5a8.17,8.17,0,0,1-.11,1.31,6.24,6.24,0,0,0-.11,1.1,10.92,10.92,0,0,0-.66,3.39,13.23,13.23,0,0,1-.43,3.17,2,2,0,0,1-.66,1.64,15.36,15.36,0,0,1-1.31,1c-1,.74-2.08,1.54-3.17,2.41s-2.16,1.68-3.18,2.41c-2.48,1.6-4.77,3.24-6.89,4.92s-4.34,3.32-6.67,4.92a61.37,61.37,0,0,1-4.92,4,24.79,24.79,0,0,0-4.48,4.26q-1.76,1.53-3.39,3.17a37.34,37.34,0,0,1-3.61,3.17,1,1,0,0,0-.55.55,2,2,0,0,1-.55.77,16.24,16.24,0,0,0-2.62,2.84,21.91,21.91,0,0,1-2.41,2.84c-1.16,1.61-2.33,3.1-3.5,4.49s-2.33,2.88-3.5,4.48a52.74,52.74,0,0,0-4.48,6.78q-2.07,3.72-3.83,7.44c-.44,1.17-.87,2.41-1.31,3.72a18.71,18.71,0,0,0-.87,3.72,1.38,1.38,0,0,1-.22.76,1.32,1.32,0,0,0-.22.77,12.38,12.38,0,0,0-.77,3.61c-.07,1.23-.18,2.44-.33,3.61a9.79,9.79,0,0,0,.11,1.53,2.56,2.56,0,0,1-.11,1.31,21.43,21.43,0,0,0,.44,4.16c.29,1.45.59,2.76.88,3.93a16.06,16.06,0,0,0,2,2.74c.74.8,1.46,1.56,2.19,2.29.15,0,.22,0,.22.11s.08.11.22.11l4.15,1.53a16.65,16.65,0,0,0,10.5-.87,15.88,15.88,0,0,0,4-1.86c1.24-.8,2.37-1.57,3.39-2.3a47.34,47.34,0,0,0,10.28-9.84,51.3,51.3,0,0,0,3.61-4.48,48.2,48.2,0,0,1,3.39-4.27q2.19-3.72,4.38-7.76t4.15-8.21a42.21,42.21,0,0,0,2.3-4.92c.65-1.68,1.35-3.32,2.08-4.92q1.53-3.72,2.73-7.33t2.3-7.33l1.09-3.28a34.22,34.22,0,0,1,1.09-3.82,12.72,12.72,0,0,0,.66-4.27.89.89,0,0,1,.22-.66,4.72,4.72,0,0,0,.66-2.51,8.57,8.57,0,0,1,.43-2.73,12.43,12.43,0,0,0,.66-2.3c.14-.8.29-1.71.44-2.74l.65-2.62a2.25,2.25,0,0,1,1.53-2.19,3.39,3.39,0,0,1,.88-1,1.88,1.88,0,0,1,1.09-.55,112.39,112.39,0,0,1,10.17-5.91q5.15-2.62,10.61-5l1.75-.87,3.72-1.42a32.6,32.6,0,0,1,3.72-1.21l7.65-2.18a1.81,1.81,0,0,1,1.32-.44,1.38,1.38,0,0,0,.65-1.2C1589.45,816.35,1589.31,816.09,1589,816.09Zm-50.31,26.8a8.1,8.1,0,0,1-.44,1.2c-.29,1.17-.58,2.62-.88,4.37a15.68,15.68,0,0,1-1.31,4.38.85.85,0,0,1-.22.65.68.68,0,0,0-.22.44,69.7,69.7,0,0,1-4.37,14q-1.76,5.25-3.61,10.39a56.8,56.8,0,0,1-4.92,10.17c-.87,1.75-1.79,3.54-2.73,5.36s-2,3.68-3.18,5.58c-1.45,2.33-2.95,4.59-4.48,6.78a57.68,57.68,0,0,1-4.7,5.9l-4.49,4.49a31,31,0,0,1-4.7,3.83l-5.69,2.84a22.59,22.59,0,0,1-2.84.87,3.94,3.94,0,0,1-2.41-.65c-1.45-1.17-2.25-2.12-2.4-2.84a11.24,11.24,0,0,1-1.31-4.6,17.93,17.93,0,0,1,.43-7.65,29.71,29.71,0,0,1,1.64-8.21,57.27,57.27,0,0,1,3.39-7.76q3.72-6.34,7.66-11.92a91.42,91.42,0,0,1,8.75-10.61,48.79,48.79,0,0,1,3.94-3.94c1.31-1.16,2.76-2.48,4.37-3.94,1.17-1.16,2.44-2.4,3.83-3.71a44.21,44.21,0,0,1,4.48-3.72,3.65,3.65,0,0,0,1.53-1.53l2.85-2.19a47.48,47.48,0,0,0,4.37-3.5,35.26,35.26,0,0,1,4.59-3.5l2.63-2.62c.14-.15.22-.15.22,0a.38.38,0,0,1,.44.43A5,5,0,0,1,1538.71,842.89Z" transform="translate(-1.92 -213.17)"/><path class="cls-7" d="M1826.88,765.89c.51-.22,1.2-.47,2.08-.76a48.71,48.71,0,0,0,5.36-1.21,14.13,14.13,0,0,1,5.14-.54l.87-.44a8.35,8.35,0,0,1,2.08-.55,19.65,19.65,0,0,1,2.08-.11,11.52,11.52,0,0,1,3.28-.76,19.19,19.19,0,0,0,3.28-.55c.14,0,.14-.18,0-.55s.14-.69.87-1q.45,0,.33-.33c-.07-.22-.33-.33-.76-.33-.15,0-.19-.14-.11-.43s0-.37-.33-.22a6.43,6.43,0,0,1-2.73-.55,2.81,2.81,0,0,0-2.52.11,1.58,1.58,0,0,0-1.31.22,5.29,5.29,0,0,0-3.94-.22,1.19,1.19,0,0,1-1.09.33,1.77,1.77,0,0,0-1.1.11,2.14,2.14,0,0,0-2.18-.11,5.39,5.39,0,0,1-2.41.54c-2.77.74-5,1.24-6.67,1.54s-4,.8-7.11,1.53c-.15-.15-.4-.18-.77-.11s-.4,0-.1-.33q3.06-6.78,5.68-12.91a126,126,0,0,1,6.35-12.68,1.83,1.83,0,0,0,.21-1.53,7.27,7.27,0,0,0-.43-1.32,10.41,10.41,0,0,1-.77-1.31l-.55-1.09a5.2,5.2,0,0,0-3.28-.88c-1.46,0-2.33.37-2.62,1.1l-.66,1.09a18.58,18.58,0,0,0-.65,1.86,8.1,8.1,0,0,1-.44,1.2l-9.12,23.21a5.88,5.88,0,0,1-1-.35,2.81,2.81,0,0,0-2.52.11,1.58,1.58,0,0,0-1.31.22,5.28,5.28,0,0,0-3.94-.22,1.19,1.19,0,0,1-1.09.33,1.74,1.74,0,0,0-1.09.11,2.16,2.16,0,0,0-2.19-.11,5.36,5.36,0,0,1-2.41.54c-2.77.74-5,1.24-6.67,1.54s-4,.8-7.11,1.53c-.14-.15-.4-.18-.76-.11s-.41,0-.11-.33q3.06-6.78,5.69-12.91a128,128,0,0,1,6.34-12.68,1.87,1.87,0,0,0,.22-1.53,8,8,0,0,0-.44-1.32,11.78,11.78,0,0,1-.77-1.31c-.21-.44-.4-.8-.54-1.09a5.22,5.22,0,0,0-3.28-.88c-1.46,0-2.34.37-2.63,1.1l-.65,1.09a16.66,16.66,0,0,0-.66,1.86,7.1,7.1,0,0,1-.44,1.2l-9.62,24.5-1.31,3.28v.22a.62.62,0,0,0-.22.44c0,.29-.52.65-1.53,1.09l-2,.77a12.18,12.18,0,0,1-2,.54,2,2,0,0,0-.88.22l-.87.44c-.88.15-1.79.33-2.74.55a8.35,8.35,0,0,0-2.73,1.2,3.39,3.39,0,0,0-1.31.44,12,12,0,0,0-2.85,1.09c-.43-.29-.73-.33-.87-.11a3.78,3.78,0,0,1-.44.55l-4.37,1.53a8.32,8.32,0,0,0-1.86.22c-.66.14-.91.73-.77,1.75l.22.22q.23.21-.33,1.2c-.36.66-.25,1.13.33,1.42a3.29,3.29,0,0,0,2,.88l3.17-.77a17.66,17.66,0,0,0,2.52-.76l1.09-.55a.84.84,0,0,1,.33-.11h.44a5.1,5.1,0,0,0,1.42-.44l6.12-2.19,3.94-1.31c.14-.44.36-.51.66-.22h.21l.22-.22a6.88,6.88,0,0,1-.43,2c-.3.88-.66,1.83-1.1,2.85s-.87,2-1.31,2.84a20.2,20.2,0,0,1-1.09,2,20.45,20.45,0,0,0-1.32,3.39,19.81,19.81,0,0,1-1.31,3.39,32.86,32.86,0,0,0-1.31,3.83c-.44,1.53-.88,3-1.31,4.48s-.81,2.66-1.1,3.61-.44,1.35-.44,1.2a21.85,21.85,0,0,1-.54,2.19,20,20,0,0,0-.55,2.41l-.44,2c-.56,1.82-1.15,4.29-1.78,7.39l-2.37,1.68a25.69,25.69,0,0,1-2.41,1.42c-2,1-4,2.08-6,3.18s-4.12,2.22-6.45,3.39q-6.79,3.06-13.35,5.9a90.22,90.22,0,0,1-14.65,4.81,11.33,11.33,0,0,1-4.27.88,30.3,30.3,0,0,0-3.83.22,10.07,10.07,0,0,1-2.4-.22,6.54,6.54,0,0,1-2.3-.44,4.65,4.65,0,0,1-2.07-1.53,5,5,0,0,1-1.54-2.41c0-1,0-2.18.11-3.5a6.44,6.44,0,0,1,1.21-3.5c0-.14.07-.21.22-.21h.43l.88.65a2.06,2.06,0,0,0,3.06.66c.73-.14,1.42-.25,2.08-.33a2.66,2.66,0,0,0,1.64-.77,5.65,5.65,0,0,1,1.2-.87,5.65,5.65,0,0,0,1.2-.87q3.06-2.41,5.8-5t5.14-5.46a9.72,9.72,0,0,0,2.63-8.53l-.88-2.19a10.45,10.45,0,0,0-3-2,4.49,4.49,0,0,0-3.61-.22,3.72,3.72,0,0,1-1.75.66,46.84,46.84,0,0,0-4.81,2.73,35.45,35.45,0,0,0-3.94,2.95,46,46,0,0,0-9.62,10.5c-1,1.61-1.68,2.7-2,3.28s-.8,1.75-1.53,3.5l-.44,1.32a3.15,3.15,0,0,0-.55,1.86c-.07.95-.11,1.56-.11,1.85a8.61,8.61,0,0,0,1.64,6.35,44,44,0,0,0,4.49,5.25,7.82,7.82,0,0,0,4.26,1.86c1.68.22,3.32.47,4.92.76,1.75,0,3.06,0,3.94-.11a21.9,21.9,0,0,0,3.72-.76l6.34-1.75a56.58,56.58,0,0,0,9.3-3q4.48-1.85,8.86-3.6,2-.87,4-2c1.39-.73,2.88-1.46,4.49-2.19q3.49-2.19,6.78-3.94c1.39-.74,2.79-1.58,4.18-2.5l0,.32c-.29,1.45-.51,2.48-.65,3.06a14.13,14.13,0,0,0-.22,3.06l-.44,8.09q0,3.95.33,9.19a19.21,19.21,0,0,0,2.08,8.31,6.45,6.45,0,0,0,1.64,2.74,20.2,20.2,0,0,0,3.82,1.64,1.27,1.27,0,0,0,.88.43,4.24,4.24,0,0,0,3-.76,1.68,1.68,0,0,0,.55-1.64,3.16,3.16,0,0,0-1.2-1.64,5.13,5.13,0,0,0-2.3-1,3,3,0,0,0-.77-1.09,2.31,2.31,0,0,1-.65-1.09,13.92,13.92,0,0,1-.55-3.18q-.22-2.29-.22-7.54a107.44,107.44,0,0,1,1.31-17.5,148.18,148.18,0,0,1,3.28-15q2-7.11,4.6-13.89t5.25-14.44c.14-.29.44-1,.87-2a34.65,34.65,0,0,0,1.21-3.28c.36-1.17.72-2.26,1.09-3.28a6.82,6.82,0,0,1,.77-1.75,1.87,1.87,0,0,0,.54-.88c.07-.29.47-.43,1.21-.43l3.28-1.1,3.71-.65c.73-.29,1.35-.55,1.86-.77s1.21-.47,2.08-.76a48.2,48.2,0,0,0,5.36-1.21,14.13,14.13,0,0,1,5.14-.54l.88-.44a8.29,8.29,0,0,1,2.07-.55,19.65,19.65,0,0,1,2.08-.11,11.6,11.6,0,0,1,3.28-.76l.18,0-.4,1v.22a.66.66,0,0,0-.22.44c0,.29-.51.65-1.53,1.09l-2,.77a11.9,11.9,0,0,1-2,.54,2,2,0,0,0-.87.22c-.29.15-.58.3-.88.44-.87.15-1.78.33-2.73.55a8.26,8.26,0,0,0-2.73,1.2,3.42,3.42,0,0,0-1.32.44,12,12,0,0,0-2.84,1.09c-.44-.29-.73-.33-.87-.11a4.59,4.59,0,0,1-.44.55l-4.38,1.53a8.39,8.39,0,0,0-1.86.22c-.65.14-.91.73-.76,1.75l.22.22c.14.14,0,.54-.33,1.2s-.25,1.13.33,1.42a3.26,3.26,0,0,0,2,.88c1.16-.29,2.22-.55,3.17-.77a17.91,17.91,0,0,0,2.51-.76l1.1-.55a.84.84,0,0,1,.33-.11h.43a5,5,0,0,0,1.42-.44l6.13-2.19,3.94-1.31c.14-.44.36-.51.65-.22h.22l.22-.22a7,7,0,0,1-.44,2c-.29.88-.65,1.83-1.09,2.85s-.88,2-1.31,2.84a19.86,19.86,0,0,1-1.1,2,20.13,20.13,0,0,0-1.31,3.39,20.72,20.72,0,0,1-1.31,3.39,32.69,32.69,0,0,0-1.32,3.83c-.43,1.53-.87,3-1.31,4.48s-.8,2.66-1.09,3.61-.44,1.35-.44,1.2q-.23,1.1-.54,2.19a18.28,18.28,0,0,0-.55,2.41l-.44,2q-.87,2.84-1.86,7.76a69,69,0,0,0-1.2,7.77c-.3,1.45-.51,2.48-.66,3.06a14.13,14.13,0,0,0-.22,3.06l-.43,8.09q0,3.95.32,9.19a19.21,19.21,0,0,0,2.08,8.31,6.55,6.55,0,0,0,1.64,2.74,20.41,20.41,0,0,0,3.83,1.64,1.25,1.25,0,0,0,.87.43,4.25,4.25,0,0,0,3-.76,1.65,1.65,0,0,0,.54-1.64,3,3,0,0,0-1.2-1.64,5,5,0,0,0-2.3-1,3,3,0,0,0-.76-1.09,2.31,2.31,0,0,1-.66-1.09,14.07,14.07,0,0,1-.54-3.18q-.22-2.29-.22-7.54a106.34,106.34,0,0,1,1.31-17.5,145.5,145.5,0,0,1,3.28-15q2-7.11,4.59-13.89t5.25-14.44c.15-.29.44-1,.88-2a32.11,32.11,0,0,0,1.2-3.28c.36-1.17.73-2.26,1.1-3.28a7.4,7.4,0,0,1,.76-1.75,2,2,0,0,0,.55-.88c.07-.29.47-.43,1.2-.43l3.28-1.1,3.72-.65C1825.75,766.37,1826.37,766.11,1826.88,765.89Zm-124.56,50.86a17.18,17.18,0,0,1,4.7-6.13,29.26,29.26,0,0,1,7.11-4.15,1,1,0,0,0,.43-.11,1.06,1.06,0,0,1,.44-.11,70.09,70.09,0,0,1-6.34,6.78,40.12,40.12,0,0,1-7,5.25Q1702.1,816.75,1702.32,816.75Z" transform="translate(-1.92 -213.17)"/><path class="cls-7" d="M1928.92,804.06a1.6,1.6,0,0,1-.22-.66.64.64,0,0,0-.22-.43,6.34,6.34,0,0,0-2.3-1.53c-.8-.29-1.64-.59-2.51-.88a9.15,9.15,0,0,0-5.69.44c-1.9.58-3.87,1.28-5.91,2.08a13,13,0,0,0-5,3.39,7.25,7.25,0,0,1-1.53,1.53c-.44.29-1.09.8-2,1.53h-.22v-.44c.29-1.6.55-3.13.77-4.59s.4-3,.55-4.6q.43-1.3-1.32-2.4a16.49,16.49,0,0,0-3.06-1.75,2.27,2.27,0,0,0-2.19-.22,1.72,1.72,0,0,0-1.31,1.75,26.37,26.37,0,0,1-.87,6.78,10.85,10.85,0,0,0-.22,2.19,5.9,5.9,0,0,1-.44,2.19c-.37,1.32-.71,2.65-1,4a4.89,4.89,0,0,1-1.71.5c-.08-.07-.48.26-1.2,1-1.46,1-2.34,1.64-2.63,1.86a25.69,25.69,0,0,1-2.41,1.42c-2,1-4,2.08-6,3.18s-4.12,2.22-6.45,3.39q-6.78,3.06-13.35,5.9a90.22,90.22,0,0,1-14.65,4.81,11.33,11.33,0,0,1-4.27.88,30,30,0,0,0-3.82.22,10.11,10.11,0,0,1-2.41-.22,6.54,6.54,0,0,1-2.3-.44,4.65,4.65,0,0,1-2.07-1.53,5,5,0,0,1-1.54-2.41c0-1,0-2.18.11-3.5a6.61,6.61,0,0,1,1.21-3.5c0-.14.07-.21.22-.21h.43l.88.65a2.06,2.06,0,0,0,3.06.66c.73-.14,1.42-.25,2.08-.33A2.66,2.66,0,0,0,1839,824a5.65,5.65,0,0,1,1.2-.87,5.65,5.65,0,0,0,1.2-.87c2-1.61,4-3.29,5.8-5s3.53-3.57,5.14-5.46a9.72,9.72,0,0,0,2.63-8.53l-.88-2.19a10.31,10.31,0,0,0-2.95-2,4.49,4.49,0,0,0-3.61-.22,3.72,3.72,0,0,1-1.75.66,46.84,46.84,0,0,0-4.81,2.73,36.41,36.41,0,0,0-3.94,2.95,46,46,0,0,0-9.62,10.5c-1,1.61-1.68,2.7-2,3.28s-.8,1.75-1.53,3.5l-.44,1.32a3.15,3.15,0,0,0-.55,1.86c-.07.95-.11,1.56-.11,1.85a8.61,8.61,0,0,0,1.64,6.35,44,44,0,0,0,4.49,5.25,7.82,7.82,0,0,0,4.26,1.86c1.68.22,3.32.47,4.92.76,1.75,0,3.07,0,3.94-.11a21.71,21.71,0,0,0,3.72-.76l6.34-1.75a56.58,56.58,0,0,0,9.3-3q4.49-1.85,8.86-3.6c1.31-.58,2.66-1.24,4-2s2.88-1.46,4.49-2.19q3.5-2.19,6.78-3.94a54.06,54.06,0,0,0,6.56-4.15c.19-.16.34-.3.48-.43-.34,1.54-.72,3.07-1.14,4.58a19.9,19.9,0,0,1-2,6.13,13.73,13.73,0,0,0-1.09,2.29c-.29.81-.58,1.57-.87,2.3a1.76,1.76,0,0,0,.65,2.41,10.25,10.25,0,0,0,4.16,2.18,1.59,1.59,0,0,0,1.64,0,2.76,2.76,0,0,0,1.42-1.31,3.24,3.24,0,0,1,.11-.87,3.72,3.72,0,0,0,.11-.88q.87-2.4,1.53-4.7a18.67,18.67,0,0,1,2-4.49,3.1,3.1,0,0,0,1.09-1.53q.87-1.3,1.86-2.73a22.92,22.92,0,0,0,1.64-2.73c1.6-2.05,2.92-3.61,3.94-4.71a20.88,20.88,0,0,1,3.06-2.73q1.76-1.53,3.39-3.17a16.31,16.31,0,0,1,3.61-2.74c.73-.43,1.49-.87,2.3-1.31a20.34,20.34,0,0,1,2.29-1.09,6.72,6.72,0,0,1,3.72-.22,1.77,1.77,0,0,0,1,.11.48.48,0,0,1,.54.11h.44a1.42,1.42,0,0,0,.77-.22C1929,804.35,1929.06,804.21,1928.92,804.06Zm-93,12.69a17.18,17.18,0,0,1,4.7-6.13,29.26,29.26,0,0,1,7.11-4.15,1.06,1.06,0,0,0,.44-.11,1,1,0,0,1,.43-.11,70.09,70.09,0,0,1-6.34,6.78,40.12,40.12,0,0,1-7,5.25Q1835.74,816.75,1836,816.75Z" transform="translate(-1.92 -213.17)"/><path class="cls-7" d="M1679.57,815.65l-3-2.95a6.77,6.77,0,0,0-3.18-1.86,13.16,13.16,0,0,0-8.09-2,39,39,0,0,0-7.87,1.75c-1.17.3-2.38.66-3.61,1.1a17.18,17.18,0,0,0-3.83,2v.22a38,38,0,0,1-3.61,2.19q-2.73,1.53-3.83,2.19l.66-1.53a1.37,1.37,0,0,0,.44-1,3.44,3.44,0,0,1,.43-1.42h-.22l.66-1.31a96,96,0,0,1,3.39-11q2.08-5.58,4.49-10.61,2.4-7.22,5-14.21t5.68-14l.22-1.32c.58-1.16,1-1.93,1.2-2.29a2.23,2.23,0,0,0,.33-.66.77.77,0,0,0-.11-.33,3.21,3.21,0,0,1,.11-1.31l.88-2,1.53-5.25a14.14,14.14,0,0,0,1.64-3.71c.36-1.32.69-2.77,1-4.38a3.37,3.37,0,0,1,.11-.66,3.24,3.24,0,0,0,.11-.87,2.79,2.79,0,0,1-.65-1,7.41,7.41,0,0,0-.66-1.2,2.61,2.61,0,0,0-1.75-1.75,4.12,4.12,0,0,1-1.2-.11,5.06,5.06,0,0,1-.77-.33q-3.5-.87-3.93,2.19a8.38,8.38,0,0,1-.22,4.16v2.4a6.46,6.46,0,0,1-.44,2.41c-.15.29-.48,1.06-1,2.3s-1,2.59-1.53,4-1,2.85-1.42,4.16a15.85,15.85,0,0,0-.65,2.19c-.3.73-.74,1.67-1.32,2.84s-.73,1.9-.43,2.19c0,.14-.15.36-.44.65-.44,1.17-.88,2.41-1.31,3.72l-1.32,3.94a11.84,11.84,0,0,0-2,4.37,9.48,9.48,0,0,1-1.53,3.72v.44a10.18,10.18,0,0,0-1.75,3.39,24.77,24.77,0,0,0-.65,3.39l-.66,1.75a6,6,0,0,0-1,2.08c-.22.8-.48,1.64-.77,2.51a3.86,3.86,0,0,1-.55,2.41,8.2,8.2,0,0,0-1,1.53,3.81,3.81,0,0,0-1.09,2c-.3.87-.59,1.93-.88,3.17s-.58,2.37-.87,3.39a13.08,13.08,0,0,0-.33,1.86,3.17,3.17,0,0,1-1,1.86,2.52,2.52,0,0,0-.43,1.42,7.06,7.06,0,0,1-.22,1.64l-.22.88H1636l-.22,1.53c-.73,2.77-1.45,5.54-2.19,8.31a51.76,51.76,0,0,1-2.84,8.09l-1.09,3.94a1,1,0,0,0,.22,1.31c.58.44,1.35,1,2.29,1.64a13,13,0,0,0,2.52,1.43q1.74,1.53,2.84-.88a.64.64,0,0,0,.22-.44l1.75-4.81a28.64,28.64,0,0,1,4.26-6.89c1.68-2,3.32-3.75,4.93-5.36l2.4-1.75a16.24,16.24,0,0,1,5.47-3.5q3.06-1.3,5.47-2.51a14.47,14.47,0,0,1,5.47-1.43,4,4,0,0,0,1.64.11,2.82,2.82,0,0,1,1.64.33,3.42,3.42,0,0,1,2.19,2.63l-.22,2a5.15,5.15,0,0,1,0,2.07,14.14,14.14,0,0,1-.66,2.08,27.83,27.83,0,0,1-1.42,2.52c-.51.8-1.06,1.64-1.64,2.51q-1.75,1.76-3.39,3.61a13.62,13.62,0,0,1-3.61,3l-2,1.32a23.08,23.08,0,0,1-4.26,2.62,32.12,32.12,0,0,1-4.49,1.75,7.67,7.67,0,0,0-2.08,1,6,6,0,0,1-2.07.76l-1.1.22c-1.46.29-2.81.51-4,.66a10.11,10.11,0,0,1-3.61-.22h-.66v.87c0,.59.07.88.22.88a1,1,0,0,0,1.09.65,16.06,16.06,0,0,0,5.69,1.75,8.52,8.52,0,0,0,5.69-.21,27.59,27.59,0,0,0,5.47-1.32c1.6-.58,3.2-1.23,4.81-2a31.17,31.17,0,0,1,3.06-1.53,23.7,23.7,0,0,0,3.28-1.75,5.76,5.76,0,0,0,2-1.31l2-2,3.5-3.5a41.44,41.44,0,0,0,3.06-3.39,16.88,16.88,0,0,0,2.19-3.61c.29-1.16.51-2.19.65-3.06a18.27,18.27,0,0,0,.22-3.06,8,8,0,0,1-.54-2.19A8.38,8.38,0,0,0,1679.57,815.65Z" transform="translate(-1.92 -213.17)"/><path class="cls-7" d="M1304.89,738.88,1301,733a3.48,3.48,0,0,0-2.41-1.75c-.87-.29-1.71-.54-2.51-.76a9.46,9.46,0,0,0-2.52-.33,22.92,22.92,0,0,0-4.48-.44c-1.53,0-3.1.08-4.7.22a1.5,1.5,0,0,1-1,.11,1.54,1.54,0,0,0-1,.11,4.44,4.44,0,0,0-1.75.22c-2.19.44-4.3.87-6.34,1.31a48.15,48.15,0,0,0-6.13,1.75q-3.5,1.1-6.89,2.3t-7.11,2.73a56.32,56.32,0,0,0-5.36,2.84,43.88,43.88,0,0,1-5.57,2.85,18.9,18.9,0,0,0-2.74,1.42,27.26,27.26,0,0,0-2.3,1.64,137.33,137.33,0,0,0-12.24,9.41,36.78,36.78,0,0,0-9,10.28,16,16,0,0,0-1.32,2.84l-.87,2.62a3.46,3.46,0,0,0,0,1.75,3.7,3.7,0,0,1,0,1.75,16.17,16.17,0,0,0,2.19,10.07,13,13,0,0,0,3.61,4.15q2.29,1.76,4.26,3.28,3.06,1.75,6,3.61a28.18,28.18,0,0,0,6.23,2.95c2.48.74,5,1.61,7.55,2.63s5.06,2,7.54,2.84a30.08,30.08,0,0,0,4.92,1.75,30.8,30.8,0,0,1,4.93,1.75q7.65,3.28,15.09,7.22a71.23,71.23,0,0,1,9.4,6.34,35.52,35.52,0,0,1,7.44,8.1,30.5,30.5,0,0,0,2,2.51,6.58,6.58,0,0,1,1.31,3,18.36,18.36,0,0,1,.33,4.26,7.77,7.77,0,0,1-1,3.39,12.66,12.66,0,0,1-2.41,3q-1.53,1.42-3.72,3.39a18.13,18.13,0,0,1-3.94,2.74l-4.15,2.08-3.28,2a3.36,3.36,0,0,1-1.42.87,9.69,9.69,0,0,0-1.64.66,3.86,3.86,0,0,0-1.75.43c-.59.3-1.25.59-2,.88a1,1,0,0,1-.77.11,1,1,0,0,0-.76.11,14.36,14.36,0,0,0-1.86.87,5.84,5.84,0,0,0-1.21.88,11.32,11.32,0,0,0-2.62.22,9.07,9.07,0,0,1-1.1.43,4,4,0,0,1-1.31.22l-3.28,1.1a10.17,10.17,0,0,0-1.64.54,10.18,10.18,0,0,1-1.64.55,8.27,8.27,0,0,0-1.31.11,2.46,2.46,0,0,0-1.31.76,1.2,1.2,0,0,1-1.53.22,1.08,1.08,0,0,0-1.54,0,7,7,0,0,1-3.06,1.32,22.48,22.48,0,0,1-3.06.21,6.7,6.7,0,0,0-1.53.22,7.05,7.05,0,0,1-1.75.22,10.88,10.88,0,0,0-1.64.55,2.4,2.4,0,0,1-1.86-.11.2.2,0,0,1-.22.22l-.44.22a5.94,5.94,0,0,1-3.94.43,4.76,4.76,0,0,0-1.09.11,4.26,4.26,0,0,1-1.09.11,5.1,5.1,0,0,0-2.19.66c-1.17.73-2,.73-2.62,0a5.71,5.71,0,0,0-2.19,0c-.59.29-1.13.55-1.64.77a1.91,1.91,0,0,1-1.64-.11,17.66,17.66,0,0,1-2.52-.22,19.67,19.67,0,0,0-4.26,0,2.8,2.8,0,0,1-1.75.22,3.86,3.86,0,0,0-1.53-.66,1.32,1.32,0,0,0-.77.22,1.19,1.19,0,0,1-.88.11,4.62,4.62,0,0,1-1.64-1,3.57,3.57,0,0,1-2.51,0q-1-.43-1.86-.87c-.44-.15-.84-.29-1.2-.44a13.39,13.39,0,0,0-1.43-.44c-1.31-.58-2.66-1.12-4-1.64a9.07,9.07,0,0,1-3.39-2.08,7,7,0,0,0-2.41-1.75,2.56,2.56,0,0,1-.87-1.85,2.93,2.93,0,0,1,.22-2.08,8.67,8.67,0,0,0,.87-1.86c.14-.51.29-1.13.44-1.86s0-1.38-.33-1.53a10,10,0,0,0-1.86-.44,1.87,1.87,0,0,1-.87.22,1.71,1.71,0,0,0-1.75,1.09c-.15.3-.33.62-.55,1a6,6,0,0,0-.55,1.2,17.39,17.39,0,0,0-.65,4.59,8.71,8.71,0,0,0,.87,3.94,16.55,16.55,0,0,0,4.16,4.81,23.25,23.25,0,0,0,6,3.61,56.9,56.9,0,0,0,6.45,2.3,22.32,22.32,0,0,0,2.19.55c1,.21,2.15.43,3.39.65a31.43,31.43,0,0,0,3.72.44,14.35,14.35,0,0,0,3.17-.11c1.17.15,1.93.26,2.3.33a1.69,1.69,0,0,1,.66.22.86.86,0,0,0,.54.11c.29,0,1-.08,2.19-.22.14-.15.51-.22,1.09-.22,1.32.15,2.55.26,3.72.33a22.46,22.46,0,0,0,3.72-.11q3.06-.43,6.12-.77a62,62,0,0,0,6.13-1c1.75-.44,3.24-.77,4.48-1s2.37-.43,3.39-.65l3.18-.66c1.09-.22,2.44-.55,4-1q6.34-1.76,12.25-3.61a97.31,97.31,0,0,0,11.59-4.49l7.44-3.93a31.2,31.2,0,0,0,5.8-3.94,58.31,58.31,0,0,0,4.7-4.59,25.75,25.75,0,0,0,2.3-2.63,8.62,8.62,0,0,0,1.42-3.06,1.75,1.75,0,0,1,.44-1.31c.29-.58.47-.95.54-1.1a7.77,7.77,0,0,0,.33-1.09c0-1,0-2,.11-3s.18-1.93.33-3c-.59-1.89-1.1-3.72-1.53-5.47a17.18,17.18,0,0,0-2.19-5,40.39,40.39,0,0,0-4.27-5.9,47.16,47.16,0,0,0-5.14-5,45.43,45.43,0,0,0-5.79-4.49c-2.12-1.38-4.2-2.66-6.24-3.82a44.71,44.71,0,0,0-6.23-3q-3.18-1.2-6.45-2.73c-1.32-.58-2.67-1.17-4-1.75a21.59,21.59,0,0,0-4.48-1.31c-1.61-.58-3-1.1-4.27-1.53a35.32,35.32,0,0,1-4-1.75,1.3,1.3,0,0,1-.88-.22,30.08,30.08,0,0,0-4.92-1.75,30.35,30.35,0,0,1-4.92-1.75,14.09,14.09,0,0,0-1.53-.66l-1.32-.44q-2.4-1.08-4.37-2.18c-1.31-.73-2.77-1.54-4.38-2.41-.87-.58-1.78-1.24-2.73-2a8.72,8.72,0,0,1-2.3-2.62,8.4,8.4,0,0,1-1-4.27,10.69,10.69,0,0,1,1.2-4.26,41.12,41.12,0,0,1,3.28-4.49,28.6,28.6,0,0,1,3.94-3.83,100.46,100.46,0,0,1,10.83-8.64,126.41,126.41,0,0,1,11.7-7.11l9.62-4.59a63,63,0,0,1,16.85-5.47,50.09,50.09,0,0,1,7.65-.65,23,23,0,0,1,5.91-.11,23.45,23.45,0,0,1,5.25,1.2,7.42,7.42,0,0,1,2.62,1.31,1.85,1.85,0,0,1,.66,1.75c.14.3,0,.81-.44,1.53-.29,1-.55,2-.76,3s-.48,1.86-.77,2.73q-.89,3.94,1.53,6.13a2,2,0,0,0,2.19.43,2.64,2.64,0,0,0,1.75-1.75,8.89,8.89,0,0,0,1.09-2.84,16.87,16.87,0,0,1,.66-2.63v-2a5.24,5.24,0,0,1,.44-2,6.42,6.42,0,0,0,.21-2.85A11.39,11.39,0,0,0,1304.89,738.88Z" transform="translate(-1.92 -213.17)"/><path class="cls-7" d="M1478.56,864.87a8.3,8.3,0,0,0,3.28,2,7.55,7.55,0,0,0,4.37,0l.32-.11c-.19.07.06,0,.78-.11a4.16,4.16,0,0,0,1.2-1.42c.36-.66.25-1.13-.33-1.43-.73-.29-1.06-.36-1-.21s-.33.07-1.21-.22c-1.31-.73-2-1.28-2.18-1.64a20.66,20.66,0,0,0-1.32-2.3,4.11,4.11,0,0,1-1-2c-.08-.58-.19-1.24-.33-2s-.29-1.78-.44-2.73-.29-2.22-.43-3.83a2,2,0,0,0-.22-.87.92.92,0,0,1,0-.88q.66-9.4,1.64-17.39a92.56,92.56,0,0,1,2.51-13.45l2.19-9.84a4,4,0,0,1,.77-2.41,19.13,19.13,0,0,0,1.42-2.41c1.31-1.89,2.59-3.68,3.83-5.35s2.36-3.32,3.39-4.93a67.08,67.08,0,0,0,5.36-8q2.29-4,4.48-8,1.53-2.42,2.73-4.6c.8-1.45,1.64-3.06,2.52-4.81.73-1.31,1.45-2.62,2.19-3.94s1.45-2.69,2.18-4.15,1.42-2.92,2.08-4.38,1.28-3,1.86-4.59a3,3,0,0,1,.22-1.31,31.87,31.87,0,0,0,2-6.46q.66-3.37,1.09-6.45a7.23,7.23,0,0,0-3.06-7.22,1.74,1.74,0,0,0-.88-.32,4,4,0,0,1-1.09-.33,20.34,20.34,0,0,0-3.17-.55c-1-.07-2-.18-3.17-.33-.3,0-.44.08-.44.22a8.5,8.5,0,0,0-2.63,2.41c-1.31,2-2.59,4-3.82,6s-2.45,4-3.61,6a17.61,17.61,0,0,1-2.63,5.25,2.13,2.13,0,0,1-.65,1.53,36.71,36.71,0,0,1-1.53,4.48c-.59,1.39-1.24,2.88-2,4.49a47.34,47.34,0,0,0-3.17,6.78,39.71,39.71,0,0,0-2.08,7.65,3.25,3.25,0,0,0-.44,1.32q-.66,1.74-1.2,3.39c-.37,1.09-.7,2.07-1,3l-1.31,4.37c-.87,2.78-1.68,5.47-2.4,8.1s-1.39,5.25-2,7.87a21.46,21.46,0,0,1-2,5,11.72,11.72,0,0,0-1.1,1.75c-.29.59-.65,1.24-1.09,2a1.88,1.88,0,0,1-.66,1,8.59,8.59,0,0,0-.87.77A8.46,8.46,0,0,1,1473,812a13,13,0,0,0-1.64,2.3c-.44.44-.88.84-1.31,1.2a5.67,5.67,0,0,0-1.1,1.21c-.73,1-1.46,2-2.19,2.84a8.83,8.83,0,0,1-2.18,2,24.51,24.51,0,0,0-2.3,2.62,22.39,22.39,0,0,1-2.08,2.41,97.12,97.12,0,0,1-12.9,11.16,16.67,16.67,0,0,0-2.74,1.64,7.44,7.44,0,0,1-3,1.2h-.66a2.38,2.38,0,0,0-1.09.22c-.29.15-.58,0-.87-.44s-.59-1.2-.88-1.86a2.59,2.59,0,0,1,0-2.08,8,8,0,0,1,.22-2,7.42,7.42,0,0,0,.22-1.75,48,48,0,0,1,1.75-5.79c.73-2,1.45-3.75,2.18-5.36q2.19-3.28,4.6-6.45c1.6-2.12,3.2-4.19,4.81-6.24l2.63-2.62a5.93,5.93,0,0,1,1.64-1,1.93,1.93,0,0,1,2.07.11c.29.3.37.44.22.44s-.14.22,0,.66a4.7,4.7,0,0,1,1.53,2.07c.29.81.58,1.57.88,2.3a1.77,1.77,0,0,0,.22,1,9.5,9.5,0,0,1,.65,1.42,3.44,3.44,0,0,0,2.41.65,3.89,3.89,0,0,0,1.75-.43,4.08,4.08,0,0,0,1.31-.77c.44-.36.51-.69.22-1l-1.09-2.63a15.47,15.47,0,0,0-1.43-3.83,7.6,7.6,0,0,0-2.73-3c-.73-.29-1.53-.66-2.4-1.09a5.45,5.45,0,0,0-2.41-.66h-2.84c-.59,0-1,.15-1.1.44l-1.31.44a11.41,11.41,0,0,0-4.7,3.06q-1.42,1.53-3,3.06l-.43.22a8.23,8.23,0,0,1-1,1.53c-.36.44-.69.8-1,1.09a20.1,20.1,0,0,1-1.75,2.41,29.89,29.89,0,0,0-2,2.62c-.38.46-.73.92-1.06,1.38l-.36.27a7.07,7.07,0,0,0-2.08,2.07c-1.89,2.05-3.83,4-5.79,5.8s-4.34,3.9-7.11,6.23c-1,.74-2.37,1.68-4.05,2.85s-3.1,2.11-4.26,2.84q-2.19,1.1-4.38,2a24,24,0,0,1-4.59,1.31,5,5,0,0,1-5-1.86,13.26,13.26,0,0,1-2.41-5.36,9.63,9.63,0,0,1-.55-1.75,9.52,9.52,0,0,1-.32-1.75,22.53,22.53,0,0,1-.11-5.9,29.13,29.13,0,0,1,1-5q.43-1.75,1.31-5.14a35.48,35.48,0,0,1,1.75-5.36,14.19,14.19,0,0,0,.44-4.81,4.78,4.78,0,0,0-1.09-2.41,8.67,8.67,0,0,0-1.86-1.42,21,21,0,0,0-2.08-1,3.09,3.09,0,0,0-3.5.88l-3.94,4.15q-1.1,1.54-3.06,4.6a20.34,20.34,0,0,1-3.5,4.37c-.73.73-1.46,1.5-2.19,2.3a28,28,0,0,0-2.18,2.73c-.74.73-1.54,1.5-2.41,2.3s-1.68,1.57-2.41,2.3a19.43,19.43,0,0,1-2.4,2.4l-2.63,2.19-3.5,2.41a2.49,2.49,0,0,1-1.09.21c-.58,0-.88-.21-.88-.65a2.57,2.57,0,0,0-.1-.77,1,1,0,0,1,.1-.76,25,25,0,0,1,.77-3.07c.36-1.16.69-2.4,1-3.71s.62-2.55,1-3.72.69-2.11,1-2.85l.22-1.75a13,13,0,0,0-.11-1.75,1.78,1.78,0,0,0-.76-1.31l-4.16-3.28a1,1,0,0,0-1.2-.11,2.45,2.45,0,0,0-1.21,1.21,53.87,53.87,0,0,1-1.85,7.76c-.95,3.14-1.65,5.72-2.08,7.77a19.49,19.49,0,0,0-.22,2.84v2.4a4.74,4.74,0,0,0,1.31,3.07,10.33,10.33,0,0,0,2.08,2,28.33,28.33,0,0,0,2.73,1.53,10.6,10.6,0,0,0,6.13.43,6.47,6.47,0,0,0,2.62-1.42,14.86,14.86,0,0,1,2.19-1.64,25.94,25.94,0,0,0,5.47-4.81l2.84-2.63a5.42,5.42,0,0,1,.77-.65,3.08,3.08,0,0,0,.76-.88c1.17-1.45,2.55-3.06,4.16-4.81s3-3.35,4.16-4.81h.65V813l.22.44-.87,6.78a23.45,23.45,0,0,0,0,4.59,65.89,65.89,0,0,0,1.75,9.3,10.24,10.24,0,0,0,2.18,4,21.89,21.89,0,0,0,4,3.94,14,14,0,0,0,4.92,1.75,14.32,14.32,0,0,0,6.78.11,24.23,24.23,0,0,0,6.13-2.52,53.09,53.09,0,0,0,7.11-4,83.87,83.87,0,0,0,8.71-7.22s-.05.08-.08.11a1.79,1.79,0,0,0-.44,1.31l-.43,5a2.4,2.4,0,0,0,.22,1.1,5.87,5.87,0,0,0,2.4,4.15,4.66,4.66,0,0,0,2.08,2.3,16.73,16.73,0,0,0,3.17,1A15.53,15.53,0,0,0,1444,845a17.7,17.7,0,0,0,8.31-3.71l1.09-.88c1.31-1.16,2.63-2.26,3.94-3.28a31.26,31.26,0,0,0,3.94-3.72q2.84-2.83,5.57-5.25a39.55,39.55,0,0,0,5.14-5.47,6.42,6.42,0,0,0,2.08-2.29,8.7,8.7,0,0,1,1.86-2.3,6.42,6.42,0,0,1,1-2.08c.65-1.09.9-1.49.76-1.2-.15,1.31-.4,2.81-.76,4.48s-.7,3.32-1,4.92-.58,3.07-.87,4.38a14.35,14.35,0,0,0-.44,2.84c-.15.88-.29,1.72-.44,2.52a17.56,17.56,0,0,1-.65,2.51,11.33,11.33,0,0,1-.33,2.52,4.06,4.06,0,0,0,.11,2.51.45.45,0,0,1-.11.33.44.44,0,0,0-.11.33.82.82,0,0,0-.22,1,1.22,1.22,0,0,1,0,1,7.68,7.68,0,0,1,.11,2.19,6.94,6.94,0,0,0,.11,2.18,3.08,3.08,0,0,0-.11,2.74,5.34,5.34,0,0,1,.11,3.17,1.73,1.73,0,0,0,.22,1,7.58,7.58,0,0,1,.43.77.94.94,0,0,0,.22.66.6.6,0,0,1,.22.43,5.44,5.44,0,0,0,1.1,3.28q.65,0,0,.66a5.91,5.91,0,0,0,1.42,1.75A16.71,16.71,0,0,1,1478.56,864.87Zm10.28-76.34a67.08,67.08,0,0,1,2.4-7.87q1.53-4.15,3.06-8.1a12,12,0,0,1,.66-2.4,13,13,0,0,1,1.53-2.63,95.83,95.83,0,0,1,4.81-11.59q2.63-5.25,5.69-11.16c.73-1.31,1.49-2.73,2.3-4.26a49,49,0,0,1,2.51-4.27,6.1,6.1,0,0,1,1.53-2.4h.66a.2.2,0,0,1,.22.22,6,6,0,0,1,.22,3.71,54.43,54.43,0,0,0-1.75,5.91c-.44,1.9-.88,3.79-1.31,5.69q-2.19,4.82-4.16,9.08t-4.16,8.42v.65a1.25,1.25,0,0,1-.43.88,11.07,11.07,0,0,0-1.75,2.18c-.44.74-1,1.75-1.75,3.07a8.52,8.52,0,0,0-.66,1.64,19,19,0,0,1-.66,1.86,11,11,0,0,0-1.2,1.42,12.69,12.69,0,0,0-1,1.64q-1.75,2.63-3.39,5t-3.39,5.25l-.22.22h-.22C1488.11,789.7,1488.25,789,1488.84,788.53Z" transform="translate(-1.92 -213.17)"/><path class="cls-7" d="M1135.37,813.25a1.68,1.68,0,0,1-.11-1c.07-.22,0-.18-.33.11a5.53,5.53,0,0,1-1.85.55c-.08-.07-.48.26-1.21,1-1.46,1-2.33,1.64-2.62,1.86s-1.1.7-2.41,1.42c-2,1-4,2.08-6,3.18s-4.13,2.22-6.46,3.39q-6.78,3.06-13.34,5.9a90.22,90.22,0,0,1-14.65,4.81,11.37,11.37,0,0,1-4.27.88,30.19,30.19,0,0,0-3.83.22,10.07,10.07,0,0,1-2.4-.22,6.54,6.54,0,0,1-2.3-.44,4.67,4.67,0,0,1-2.08-1.53A5,5,0,0,1,1070,831c0-1,0-2.18.11-3.5a6.51,6.51,0,0,1,1.2-3.5c0-.14.07-.21.22-.21h.44l.87.65a2.07,2.07,0,0,0,3.07.66c.72-.14,1.42-.25,2.07-.33a2.61,2.61,0,0,0,1.64-.77,6,6,0,0,1,1.21-.87,5.65,5.65,0,0,0,1.2-.87q3.06-2.41,5.8-5t5.14-5.46a9.69,9.69,0,0,0,2.62-8.53l-.87-2.19a10.37,10.37,0,0,0-3-2,4.47,4.47,0,0,0-3.6-.22,3.79,3.79,0,0,1-1.75.66,48.13,48.13,0,0,0-4.82,2.73,35.3,35.3,0,0,0-3.93,2.95,46.33,46.33,0,0,0-9.63,10.5c-1,1.61-1.67,2.7-2,3.28s-.8,1.75-1.53,3.5l-.44,1.32a3.09,3.09,0,0,0-.54,1.86c-.07.95-.11,1.56-.11,1.85a8.61,8.61,0,0,0,1.64,6.35,44.85,44.85,0,0,0,4.48,5.25,7.89,7.89,0,0,0,4.27,1.86c1.67.22,3.31.47,4.92.76,1.75,0,3.06,0,3.94-.11a21.9,21.9,0,0,0,3.72-.76l6.34-1.75a57.19,57.19,0,0,0,9.3-3c3-1.23,5.94-2.43,8.85-3.6,1.32-.58,2.66-1.24,4.05-2s2.88-1.46,4.48-2.19c2.33-1.46,4.6-2.77,6.79-3.94a54.84,54.84,0,0,0,6.56-4.15c1-.88,1.45-1.35,1.31-1.42s.29-.62,1.31-1.65a1.58,1.58,0,0,0,.55-1.85C1135.7,814.53,1135.52,813.83,1135.37,813.25Zm-58.84,3.5a17.32,17.32,0,0,1,4.71-6.13,29,29,0,0,1,7.1-4.15,1,1,0,0,0,.44-.11,1,1,0,0,1,.44-.11,71.36,71.36,0,0,1-6.34,6.78,40.5,40.5,0,0,1-7,5.25C1076.17,817.26,1076.39,816.75,1076.53,816.75Z" transform="translate(-1.92 -213.17)"/><path class="cls-7" d="M1356.84,765.89c.51-.22,1.2-.47,2.07-.76a48.2,48.2,0,0,0,5.36-1.21,14.15,14.15,0,0,1,5.14-.54l.88-.44a8.35,8.35,0,0,1,2.08-.55,19.32,19.32,0,0,1,2.07-.11,11.6,11.6,0,0,1,3.28-.76A19.29,19.29,0,0,0,1381,761c.14,0,.14-.18,0-.55s.14-.69.87-1q.43,0,.33-.33c-.08-.22-.33-.33-.77-.33-.14,0-.18-.14-.11-.43s0-.37-.32-.22a6.45,6.45,0,0,1-2.74-.55,2.79,2.79,0,0,0-2.51.11,1.6,1.6,0,0,0-1.32.22,5.26,5.26,0,0,0-3.93-.22,1.21,1.21,0,0,1-1.1.33,1.75,1.75,0,0,0-1.09.11,2.16,2.16,0,0,0-2.19-.11,5.35,5.35,0,0,1-2.4.54c-2.77.74-5,1.24-6.68,1.54s-4,.8-7.1,1.53a.84.84,0,0,0-.77-.11c-.37.07-.4,0-.11-.33q3.06-6.78,5.69-12.91a128,128,0,0,1,6.34-12.68,1.87,1.87,0,0,0,.22-1.53,7.16,7.16,0,0,0-.44-1.32,11.67,11.67,0,0,1-.76-1.31c-.22-.44-.41-.8-.55-1.09a5.2,5.2,0,0,0-3.28-.88c-1.46,0-2.33.37-2.63,1.1l-.65,1.09a19,19,0,0,0-.66,1.86,6.32,6.32,0,0,1-.44,1.2l-9.62,24.5L1341,762.5v.22a.62.62,0,0,0-.22.44c0,.29-.51.65-1.53,1.09l-2,.77a11.9,11.9,0,0,1-2,.54,2,2,0,0,0-.87.22l-.88.44c-.87.15-1.79.33-2.73.55a8.4,8.4,0,0,0-2.74,1.2,3.39,3.39,0,0,0-1.31.44,11.84,11.84,0,0,0-2.84,1.09c-.44-.29-.73-.33-.88-.11a3.78,3.78,0,0,1-.44.55l-4.37,1.53a8.39,8.39,0,0,0-1.86.22c-.66.14-.91.73-.76,1.75l.21.22c.15.14,0,.54-.32,1.2s-.26,1.13.32,1.42a3.29,3.29,0,0,0,2,.88l3.17-.77a17.66,17.66,0,0,0,2.52-.76l1.09-.55a1,1,0,0,1,.33-.11h.44a5,5,0,0,0,1.42-.44l6.12-2.19,3.94-1.31c.14-.44.36-.51.66-.22h.22l.22-.22a7,7,0,0,1-.44,2c-.3.88-.66,1.83-1.1,2.85s-.87,2-1.31,2.84a20.2,20.2,0,0,1-1.09,2,20.13,20.13,0,0,0-1.31,3.39,21.06,21.06,0,0,1-1.32,3.39,34.85,34.85,0,0,0-1.31,3.83c-.44,1.53-.87,3-1.31,4.48s-.8,2.66-1.1,3.61-.43,1.35-.43,1.2c-.15.73-.33,1.46-.55,2.19a20,20,0,0,0-.55,2.41l-.43,2a78.64,78.64,0,0,0-1.86,7.76,69.41,69.41,0,0,0-1.21,7.77c-.29,1.45-.51,2.48-.65,3.06a14.13,14.13,0,0,0-.22,3.06l-.44,8.09q0,3.95.33,9.19a19.21,19.21,0,0,0,2.08,8.31,6.55,6.55,0,0,0,1.64,2.74,20.09,20.09,0,0,0,3.83,1.64,1.25,1.25,0,0,0,.87.43,4.22,4.22,0,0,0,3-.76,1.68,1.68,0,0,0,.55-1.64,3.16,3.16,0,0,0-1.2-1.64,5.08,5.08,0,0,0-2.3-1,3.14,3.14,0,0,0-.76-1.09,2.31,2.31,0,0,1-.66-1.09,14.51,14.51,0,0,1-.55-3.18c-.14-1.53-.22-4-.22-7.54a106.28,106.28,0,0,1,1.32-17.5,142.91,142.91,0,0,1,3.28-15q2-7.11,4.59-13.89t5.25-14.44c.14-.29.44-1,.88-2s.83-2.11,1.2-3.28.73-2.26,1.09-3.28a6.82,6.82,0,0,1,.77-1.75,1.87,1.87,0,0,0,.54-.88c.08-.29.48-.43,1.21-.43l3.28-1.1,3.72-.65C1355.71,766.37,1356.32,766.11,1356.84,765.89Z" transform="translate(-1.92 -213.17)"/><text class="cls-8" transform="translate(3.59 1083.36)">U<tspan class="cls-9" x="31.65" y="0">niver</tspan><tspan x="125.93" y="0">C</tspan><tspan class="cls-9" x="152.69" y="0">ity</tspan></text><text class="cls-10" transform="translate(3.59 1083.36)">U<tspan class="cls-9" x="31.65" y="0">niver</tspan><tspan x="125.93" y="0">C</tspan><tspan class="cls-9" x="152.69" y="0">ity</tspan></text><text class="cls-11" transform="translate(3.59 1083.36)">U<tspan class="cls-9" x="31.65" y="0">niver</tspan><tspan x="125.93" y="0">C</tspan><tspan class="cls-9" x="152.69" y="0">ity</tspan></text><text class="cls-8" transform="translate(3.59 1083.36)">U<tspan class="cls-9" x="31.65" y="0">niver</tspan><tspan x="125.93" y="0">C</tspan><tspan class="cls-9" x="152.69" y="0">ity</tspan></text></svg>